<svg width="25" height="24" viewBox="0 0 25 24" fill="none" xmlns="http://www.w3.org/2000/svg">
<g id="electric_car">
<g id="Vector">
<path d="M19.42 2.01C19.22 1.42 18.66 1 18 1H7C6.34 1 5.79 1.42 5.58 2.01L3.5 8V16C3.5 16.55 3.95 17 4.5 17H5.5C6.05 17 6.5 16.55 6.5 16V15H18.5V16C18.5 16.55 18.95 17 19.5 17H20.5C21.05 17 21.5 16.55 21.5 16V8L19.42 2.01ZM7 12C6.17 12 5.5 11.33 5.5 10.5C5.5 9.67 6.17 9 7 9C7.83 9 8.5 9.67 8.5 10.5C8.5 11.33 7.83 12 7 12ZM18 12C17.17 12 16.5 11.33 16.5 10.5C16.5 9.67 17.17 9 18 9C18.83 9 19.5 9.67 19.5 10.5C19.5 11.33 18.83 12 18 12ZM5.5 7L7 2.5H18L19.5 7H5.5Z" fill="white"/>
<path d="M7.5 20H11.5V18L17.5 21H13.5V23L7.5 20Z" fill="white"/>
</g>
</g>
</svg>
