<svg xmlns="http://www.w3.org/2000/svg" width="24" height="24" viewBox="0 0 24 24" fill="none">
<path d="M17.4451 10H6.55629C6.14373 10 5.74806 10.1639 5.45634 10.4556C5.16462 10.7473 5.00073 11.143 5.00073 11.5556V22.4444C5.00073 22.857 5.16462 23.2527 5.45634 23.5444C5.74806 23.8361 6.14373 24 6.55629 24H17.4451C17.8577 24 18.2534 23.8361 18.5451 23.5444C18.8368 23.2527 19.0007 22.857 19.0007 22.4444V11.5556C19.0007 11.143 18.8368 10.7473 18.5451 10.4556C18.2534 10.1639 17.8577 10 17.4451 10ZM17.4451 20.8889C17.4451 21.3014 17.2813 21.6971 16.9895 21.9888C16.6978 22.2806 16.3021 22.4444 15.8896 22.4444C15.477 22.4444 15.0814 22.2806 14.7896 21.9888C14.4979 21.6971 14.334 21.3014 14.334 20.8889C14.334 20.4763 14.4979 20.0807 14.7896 19.7889C15.0814 19.4972 15.477 19.3333 15.8896 19.3333C16.3021 19.3333 16.6978 19.4972 16.9895 19.7889C17.2813 20.0807 17.4451 20.4763 17.4451 20.8889ZM17.4451 12.7222C17.4451 13.0316 17.3222 13.3284 17.1034 13.5472C16.8846 13.766 16.5879 13.8889 16.2785 13.8889H7.72295C7.41353 13.8889 7.11679 13.766 6.89799 13.5472C6.6792 13.3284 6.55629 13.0316 6.55629 12.7222C6.55629 12.4128 6.6792 12.1161 6.89799 11.8973C7.11679 11.6785 7.41353 11.5556 7.72295 11.5556H16.2785C16.5879 11.5556 16.8846 11.6785 17.1034 11.8973C17.3222 12.1161 17.4451 12.4128 17.4451 12.7222Z" fill="#E8EAEA"/>
<path d="M8.4607 7.46L7.0507 6.05C8.3207 4.78 10.0707 4 12.0007 4C13.9307 4 15.6807 4.78 16.9507 6.05L15.5407 7.46C14.6307 6.56 13.3807 6 12.0007 6C10.6207 6 9.3707 6.56 8.4607 7.46Z" fill="#E8EAEA"/>
<path d="M4.2207 3.22C6.2107 1.23 8.9607 0 12.0007 0C15.0407 0 17.7907 1.23 19.7707 3.23L18.3607 4.64C16.7407 3.01 14.4907 2 12.0007 2C9.5107 2 7.2607 3.01 5.6307 4.63L4.2207 3.22Z" fill="#E8EAEA"/>
</svg>