<svg width="25" height="24" viewBox="0 0 25 24" fill="none" xmlns="http://www.w3.org/2000/svg">
<g id="breaker">
<path id="Vector" d="M1.5 14H7.5V16H1.5V14ZM17.5 14H23.5V16H17.5V14ZM16.74 12.5C16.4287 11.6245 15.854 10.8668 15.0948 10.331C14.3357 9.79514 13.4292 9.50748 12.5 9.50748C11.5708 9.50748 10.6643 9.79514 9.90515 10.331C9.14597 10.8668 8.57128 11.6245 8.26 12.5L5.43 11.5C5.94743 10.0385 6.90508 8.77326 8.17118 7.8784C9.43728 6.98354 10.9496 6.50305 12.5 6.50305C14.0504 6.50305 15.5627 6.98354 16.8288 7.8784C18.0949 8.77326 19.0526 10.0385 19.57 11.5L16.74 12.5Z" fill="white"/>
</g>
</svg>
