<svg id="Layer_1" data-name="Layer 1" xmlns="http://www.w3.org/2000/svg" viewBox="0 0 220 220">
    <title>CCISPowerPointSlides</title>
    <rect width="220" height="220" style="fill:#1a8c59"/>
    <ellipse cx="111.055" cy="106.437" rx="14.242" ry="14.179" style="fill:#fff"/>
    <path d="M132.062,90.736h-2.7c0-.047.014-.092.014-.139V86.418a2.562,2.562,0,0,0-5.124,0V90.6c0,.048.011.092.014.139h-5.407c0-.047.014-.092.014-.139V86.418a2.562,2.562,0,1,0-5.124,0V90.6c0,.048.011.092.014.139h-5.408c0-.047.014-.092.014-.139V86.418a2.562,2.562,0,0,0-5.124,0V90.6c0,.048.011.092.014.139H97.851c0-.047.014-.092.014-.139V86.418a2.562,2.562,0,1,0-5.124,0V90.6c0,.048.011.092.014.139H90.049a2.626,2.626,0,0,0-2.626,2.626V119.7a2.626,2.626,0,0,0,2.626,2.626h2.692v4.128a2.562,2.562,0,0,0,5.124,0v-4.128h5.379v4.128a2.562,2.562,0,0,0,5.124,0v-4.128h5.379v4.128a2.562,2.562,0,0,0,5.124,0v-4.128h5.379v4.128a2.562,2.562,0,0,0,5.124,0v-4.128h2.687a2.626,2.626,0,0,0,2.626-2.626V93.362A2.626,2.626,0,0,0,132.062,90.736Z" style="fill:#fff"/>
    <path d="M111,61.437a45,45,0,1,0,45,45A45,45,0,0,0,111,61.437Zm0,87.053a42.053,42.053,0,1,1,42.052-42.053A42.053,42.053,0,0,1,111,148.49Z" style="fill:#fff"/>
</svg>