<svg width="25" height="24" viewBox="0 0 25 24" fill="none" xmlns="http://www.w3.org/2000/svg">
<g id="wifi_off">
<path id="Vector" fill-rule="evenodd" clip-rule="evenodd" d="M2.5 3.05001L3.91 1.64001L20.88 18.61L19.47 20.02L12.39 12.94C10.61 12.96 8.85 13.65 7.5 15L5.5 13C6.77 11.74 8.29 10.89 9.91 10.46L7.67 8.22001C6.15 8.84001 4.73 9.77001 3.5 11L1.5 9.00001C2.72 7.79001 4.09 6.83001 5.55 6.10001L2.5 3.05001ZM23.5 9.00001L21.5 11C18.99 8.49002 15.68 7.25001 12.38 7.27001L9.8 4.69001C14.63 3.85001 19.77 5.27001 23.5 9.00001ZM15.78 10.67C17.14 11.15 18.42 11.92 19.5 13L18.8 13.69L15.78 10.67ZM9.5 17L12.5 20L15.5 17C13.85 15.34 11.16 15.34 9.5 17Z" fill="#A1A7AA"/>
</g>
</svg>
